<svg width="166" height="60" viewBox="0 0 166 60" fill="none" xmlns="http://www.w3.org/2000/svg">
<path fill-rule="evenodd" clip-rule="evenodd" d="M4.24264 25.7574C1.8995 28.1005 1.89949 31.8995 4.24263 34.2426L12.3895 42.3895C22.6509 36.624 35.2777 36.624 45.539 42.3897L53.686 34.2426C56.0292 31.8995 56.0292 28.1005 53.686 25.7574L33.207 5.27831C30.8638 2.93517 27.0648 2.93516 24.7217 5.27831L4.24264 25.7574ZM37.6743 50.2543C32.0973 48.0158 25.8312 48.0158 20.2542 50.2542L24.7217 54.7217C27.0648 57.0648 30.8638 57.0648 33.207 54.7217L37.6743 50.2543Z" fill="#D9D9D9"/>
<path fill-rule="evenodd" clip-rule="evenodd" d="M4.24264 25.7574C1.8995 28.1005 1.89949 31.8995 4.24263 34.2426L12.3895 42.3895C22.6509 36.624 35.2777 36.624 45.539 42.3897L53.686 34.2426C56.0292 31.8995 56.0292 28.1005 53.686 25.7574L33.207 5.27831C30.8638 2.93517 27.0648 2.93516 24.7217 5.27831L4.24264 25.7574ZM37.6743 50.2543C32.0973 48.0158 25.8312 48.0158 20.2542 50.2542L24.7217 54.7217C27.0648 57.0648 30.8638 57.0648 33.207 54.7217L37.6743 50.2543Z" fill="url(#paint0_linear_54_36)"/>
<path d="M78.4143 44.1714C76.3286 44.1714 74.4572 43.6571 72.8001 42.6286C71.1429 41.5714 69.8286 40.1571 68.8572 38.3857C67.9143 36.5857 67.4429 34.5571 67.4429 32.3C67.4429 30.0429 67.9572 28.0143 68.9858 26.2143C70.0429 24.4143 71.4572 23 73.2286 21.9714C75.0286 20.9143 77.0429 20.3857 79.2715 20.3857C81.5001 20.3857 83.5001 20.9143 85.2715 21.9714C87.0429 23 88.4429 24.4143 89.4715 26.2143C90.5286 28.0143 91.0572 30.0429 91.0572 32.3H89.3858C89.3858 34.5571 88.9001 36.5857 87.9286 38.3857C86.9858 40.1571 85.6858 41.5714 84.0286 42.6286C82.3715 43.6571 80.5001 44.1714 78.4143 44.1714ZM79.2715 40.3143C80.7286 40.3143 82.0286 39.9714 83.1715 39.2857C84.3143 38.5714 85.2143 37.6143 85.8715 36.4143C86.5286 35.1857 86.8572 33.8143 86.8572 32.3C86.8572 30.7571 86.5286 29.3857 85.8715 28.1857C85.2143 26.9571 84.3143 26 83.1715 25.3143C82.0286 24.6 80.7286 24.2429 79.2715 24.2429C77.8429 24.2429 76.5429 24.6 75.3715 25.3143C74.2286 26 73.3143 26.9571 72.6286 28.1857C71.9715 29.3857 71.6429 30.7571 71.6429 32.3C71.6429 33.8143 71.9715 35.1857 72.6286 36.4143C73.3143 37.6143 74.2286 38.5714 75.3715 39.2857C76.5429 39.9714 77.8429 40.3143 79.2715 40.3143ZM88.8715 44.0429C88.2429 44.0429 87.7143 43.8429 87.2858 43.4429C86.8858 43.0143 86.6858 42.4857 86.6858 41.8571V35.3L87.5001 30.7571L91.0572 32.3V41.8571C91.0572 42.4857 90.8429 43.0143 90.4143 43.4429C90.0143 43.8429 89.5001 44.0429 88.8715 44.0429ZM97.606 44C96.9774 44 96.4488 43.8 96.0203 43.4C95.6203 42.9714 95.4203 42.4429 95.4203 41.8143V22.7429C95.4203 22.0857 95.6203 21.5571 96.0203 21.1571C96.4488 20.7571 96.9774 20.5571 97.606 20.5571C98.2631 20.5571 98.7917 20.7571 99.1917 21.1571C99.5917 21.5571 99.7917 22.0857 99.7917 22.7429V41.8143C99.7917 42.4429 99.5917 42.9714 99.1917 43.4C98.7917 43.8 98.2631 44 97.606 44ZM97.606 16.7429C96.8345 16.7429 96.1631 16.4714 95.5917 15.9286C95.0488 15.3571 94.7774 14.6857 94.7774 13.9143C94.7774 13.1429 95.0488 12.4857 95.5917 11.9429C96.1631 11.3714 96.8345 11.0857 97.606 11.0857C98.3774 11.0857 99.0345 11.3714 99.5774 11.9429C100.149 12.4857 100.435 13.1429 100.435 13.9143C100.435 14.6857 100.149 15.3571 99.5774 15.9286C99.0345 16.4714 98.3774 16.7429 97.606 16.7429ZM115.981 44.1714C113.696 44.1714 111.653 43.6571 109.853 42.6286C108.081 41.5714 106.681 40.1571 105.653 38.3857C104.653 36.5857 104.153 34.5571 104.153 32.3C104.153 29.9857 104.653 27.9286 105.653 26.1286C106.653 24.3286 108.024 22.9286 109.767 21.9286C111.51 20.9 113.51 20.3857 115.767 20.3857C117.453 20.3857 118.996 20.7143 120.396 21.3714C121.796 22 123.053 22.9571 124.167 24.2429C124.567 24.7 124.71 25.1714 124.596 25.6571C124.481 26.1429 124.167 26.5714 123.653 26.9429C123.253 27.2286 122.81 27.3286 122.324 27.2429C121.838 27.1286 121.396 26.8714 120.996 26.4714C119.596 24.9857 117.853 24.2429 115.767 24.2429C114.31 24.2429 113.024 24.5857 111.91 25.2714C110.796 25.9286 109.924 26.8571 109.296 28.0571C108.667 29.2571 108.353 30.6714 108.353 32.3C108.353 33.8429 108.667 35.2143 109.296 36.4143C109.953 37.6143 110.853 38.5714 111.996 39.2857C113.138 39.9714 114.467 40.3143 115.981 40.3143C116.981 40.3143 117.853 40.2 118.596 39.9714C119.367 39.7143 120.067 39.3286 120.696 38.8143C121.153 38.4429 121.624 38.2429 122.11 38.2143C122.596 38.1571 123.024 38.2857 123.396 38.6C123.881 39 124.153 39.4571 124.21 39.9714C124.267 40.4571 124.096 40.9 123.696 41.3C121.638 43.2143 119.067 44.1714 115.981 44.1714ZM159.292 44.0429C158.664 44.0429 158.135 43.8429 157.706 43.4429C157.306 43.0143 157.106 42.4857 157.106 41.8571V29.6C157.106 27.8 156.664 26.4714 155.778 25.6143C154.892 24.7286 153.735 24.2857 152.306 24.2857C150.821 24.2857 149.592 24.8 148.621 25.8286C147.678 26.8571 147.206 28.1714 147.206 29.7714H143.649C143.649 27.9143 144.049 26.2857 144.849 24.8857C145.649 23.4571 146.764 22.3429 148.192 21.5429C149.649 20.7429 151.306 20.3429 153.164 20.3429C154.792 20.3429 156.235 20.7 157.492 21.4143C158.749 22.1286 159.721 23.1857 160.406 24.5857C161.121 25.9571 161.478 27.6286 161.478 29.6V41.8571C161.478 42.4857 161.278 43.0143 160.878 43.4429C160.478 43.8429 159.949 44.0429 159.292 44.0429ZM130.706 44.0429C130.078 44.0429 129.549 43.8429 129.121 43.4429C128.721 43.0143 128.521 42.4857 128.521 41.8571V22.7857C128.521 22.1286 128.721 21.6 129.121 21.2C129.549 20.8 130.078 20.6 130.706 20.6C131.364 20.6 131.892 20.8 132.292 21.2C132.692 21.6 132.892 22.1286 132.892 22.7857V41.8571C132.892 42.4857 132.692 43.0143 132.292 43.4429C131.892 43.8429 131.364 44.0429 130.706 44.0429ZM145.021 44.0429C144.392 44.0429 143.864 43.8429 143.435 43.4429C143.035 43.0143 142.835 42.4857 142.835 41.8571V29.6C142.835 27.8 142.392 26.4714 141.506 25.6143C140.621 24.7286 139.464 24.2857 138.035 24.2857C136.549 24.2857 135.321 24.8 134.349 25.8286C133.378 26.8571 132.892 28.1714 132.892 29.7714H130.192C130.192 27.9143 130.564 26.2857 131.306 24.8857C132.049 23.4571 133.078 22.3429 134.392 21.5429C135.706 20.7429 137.206 20.3429 138.892 20.3429C140.521 20.3429 141.964 20.7 143.221 21.4143C144.478 22.1286 145.449 23.1857 146.135 24.5857C146.849 25.9571 147.206 27.6286 147.206 29.6V41.8571C147.206 42.4857 147.006 43.0143 146.606 43.4429C146.206 43.8429 145.678 44.0429 145.021 44.0429Z" fill="#030930"/>
<defs>
<linearGradient id="paint0_linear_54_36" x1="14.4822" y1="15.5178" x2="43.4465" y2="44.4822" gradientUnits="userSpaceOnUse">
<stop stop-color="#5915B6"/>
<stop offset="1" stop-color="#EE5D9A"/>
</linearGradient>
</defs>
</svg>
